<?xml version="1.0" standalone="no"?>
<!DOCTYPE svg PUBLIC "-//W3C//DTD SVG 20010904//EN"
 "http://www.w3.org/TR/2001/REC-SVG-20010904/DTD/svg10.dtd">
<svg version="1.0" xmlns="http://www.w3.org/2000/svg"
 width="1500.000000pt" height="1500.000000pt" viewBox="0 0 1500.000000 1500.000000"
 preserveAspectRatio="xMidYMid meet">

<g transform="translate(0.000000,1500.000000) scale(0.100000,-0.100000)"
fill="#000000" stroke="none">
<path d="M6710 14174 c-69 -40 -141 -82 -160 -92 -35 -19 -46 -25 -170 -97
-96 -55 -120 -69 -175 -99 -27 -16 -54 -32 -60 -36 -5 -4 -30 -19 -55 -32 -25
-14 -63 -35 -85 -48 -41 -24 -115 -65 -150 -84 -11 -6 -22 -13 -25 -16 -3 -3
-16 -11 -30 -18 -27 -13 -64 -34 -120 -69 -34 -20 -68 -40 -160 -91 -25 -13
-49 -28 -55 -32 -5 -4 -32 -20 -60 -36 -55 -30 -79 -44 -175 -99 -36 -21 -85
-49 -110 -63 -25 -14 -77 -45 -117 -69 -39 -23 -75 -43 -78 -43 -4 0 -19 -8
-33 -19 -15 -10 -49 -31 -77 -46 -27 -16 -66 -37 -85 -48 -19 -11 -55 -31 -80
-45 -54 -29 -68 -40 -80 -62 -6 -12 -5 -17 5 -17 8 0 12 4 9 9 -3 4 0 8 5 8 6
0 10 5 9 11 -2 6 9 12 25 13 l27 2 0 -108 c0 -59 4 -108 9 -108 4 0 8 30 7 68
-1 58 10 156 13 110 1 -10 5 -18 11 -18 5 0 8 6 6 13 -1 6 -1 9 1 5 10 -18 22
-6 26 25 3 25 4 22 4 -10 -1 -24 -6 -42 -11 -42 -30 4 -40 -1 -28 -13 13 -13
17 -32 4 -24 -4 2 -8 -12 -8 -31 0 -32 1 -33 13 -17 7 10 13 13 13 7 0 -6 -7
-16 -15 -23 -13 -11 -13 -14 2 -27 10 -8 13 -12 6 -9 -6 4 -14 2 -18 -4 -3 -5
1 -10 11 -10 13 0 14 -3 5 -13 -8 -10 -7 -14 4 -14 11 0 14 15 12 74 -2 40 1
73 5 73 4 0 8 -36 8 -80 0 -64 -3 -80 -15 -80 -8 0 -15 -5 -15 -11 0 -6 7 -9
15 -5 13 4 15 -8 15 -76 0 -64 3 -79 12 -70 7 7 17 12 23 12 5 0 2 -5 -7 -11
-10 -5 -15 -17 -12 -27 5 -14 4 -15 -5 -2 -9 12 -11 10 -11 -12 0 -19 4 -26
14 -22 8 3 17 1 21 -5 3 -7 0 -8 -9 -5 -11 4 -16 0 -16 -10 0 -9 5 -16 10 -16
6 0 10 -5 10 -11 0 -6 -6 -9 -12 -6 -9 3 -13 -9 -14 -39 -1 -40 1 -42 20 -32
21 11 21 11 1 -11 -16 -18 -19 -37 -20 -117 0 -51 4 -94 9 -94 4 0 6 -9 3 -20
-3 -11 -1 -23 4 -26 5 -3 9 -11 8 -17 0 -9 -2 -9 -6 1 -2 6 -9 12 -14 12 -6 0
-6 -7 0 -19 6 -10 7 -21 4 -25 -4 -4 -8 -18 -9 -32 -1 -19 3 -23 14 -19 14 5
14 4 1 -12 -17 -20 -18 -31 -5 -52 6 -10 5 -12 -2 -7 -8 5 -10 2 -6 -8 3 -9
10 -14 14 -11 12 7 20 -20 10 -34 -5 -9 -10 -9 -14 -3 -3 6 0 13 6 15 8 3 6 6
-4 6 -13 1 -17 -7 -16 -31 3 -97 -5 -360 -11 -339 -6 22 -7 23 -21 6 -8 -9
-16 -29 -18 -43 -2 -15 -5 -29 -8 -31 -4 -4 -8 53 -5 77 1 6 -3 12 -9 12 -6 0
-10 -28 -10 -69 0 -39 -4 -72 -8 -75 -4 -3 -7 9 -6 26 1 17 -2 26 -7 21 -8 -8
-17 -41 -18 -73 -1 -10 -4 -11 -9 -4 -8 13 -44 15 -36 2 3 -5 10 -6 15 -3 5 4
9 1 9 -4 0 -6 -9 -11 -20 -11 -11 0 -20 -4 -20 -10 0 -5 2 -10 5 -10 10 0 69
32 85 45 8 8 52 32 97 55 45 23 91 51 102 61 11 10 23 19 27 19 12 0 80 35
131 67 52 33 99 60 203 115 30 17 73 42 96 57 22 16 65 40 95 54 30 14 72 37
94 50 22 13 60 35 85 49 25 14 74 42 110 63 36 21 85 49 110 63 25 14 61 34
80 45 19 11 55 31 80 45 25 14 57 33 72 43 14 11 28 19 31 19 2 0 125 69 273
154 148 84 319 182 379 216 61 35 120 72 131 82 l22 19 1 805 c2 655 0 804
-11 803 -7 -1 -69 -34 -138 -75z m-1943 -1600 c-3 -3 -12 -4 -19 -1 -8 3 -5 6
6 6 11 1 17 -2 13 -5z m3 -284 c0 -5 -5 -10 -11 -10 -5 0 -7 5 -4 10 3 6 8 10
11 10 2 0 4 -4 4 -10z m-7 -65 c-3 -9 -8 -14 -10 -11 -3 3 -2 9 2 15 9 16 15
13 8 -4z"/>
<path d="M4610 12928 c0 -4 7 -8 15 -8 8 0 15 4 15 8 0 5 -7 9 -15 9 -8 0 -15
-4 -15 -9z"/>
<path d="M4656 12652 c-2 -4 -1 -14 4 -22 7 -11 9 -9 7 8 -1 24 -3 26 -11 14z"/>
<path d="M4711 12614 c0 -11 3 -14 6 -6 3 7 2 16 -1 19 -3 4 -6 -2 -5 -13z"/>
<path d="M4655 12391 c0 -16 3 -27 7 -25 4 3 6 14 5 24 -5 31 -13 32 -12 1z"/>
<path d="M4655 12051 c-3 -5 -2 -12 3 -15 5 -3 9 1 9 9 0 17 -3 19 -12 6z"/>
<path d="M4655 11960 c-3 -5 -1 -10 4 -10 6 0 11 5 11 10 0 6 -2 10 -4 10 -3
0 -8 -4 -11 -10z"/>
<path d="M4661 11734 c0 -11 3 -14 6 -6 3 7 2 16 -1 19 -3 4 -6 -2 -5 -13z"/>
<path d="M4650 11700 c0 -5 5 -10 11 -10 5 0 7 5 4 10 -3 6 -8 10 -11 10 -2 0
-4 -4 -4 -10z"/>
<path d="M4659 11673 c-4 -26 -4 -81 0 -77 7 7 12 84 6 84 -3 0 -6 -3 -6 -7z"/>
<path d="M4711 11644 c0 -11 3 -14 6 -6 3 7 2 16 -1 19 -3 4 -6 -2 -5 -13z"/>
<path d="M4680 11606 c0 -2 6 -9 14 -15 10 -9 15 -8 20 4 4 10 -1 15 -14 15
-11 0 -20 -2 -20 -4z"/>
<path d="M4650 11570 c0 -5 5 -10 10 -10 6 0 10 5 10 10 0 6 -4 10 -10 10 -5
0 -10 -4 -10 -10z"/>
<path d="M4696 11562 c-3 -6 -1 -14 5 -17 14 -9 20 -2 10 14 -6 8 -11 9 -15 3z"/>
<path d="M4683 11525 c0 -8 4 -12 9 -9 5 3 6 10 3 15 -9 13 -12 11 -12 -6z"/>
<path d="M6645 10618 c-115 -67 -250 -143 -300 -171 -49 -28 -174 -99 -277
-159 -103 -59 -189 -108 -192 -108 -3 0 -43 -22 -88 -49 -46 -26 -153 -88
-238 -136 -85 -48 -195 -111 -245 -140 -49 -29 -124 -72 -165 -95 -41 -24
-107 -63 -146 -87 -40 -23 -76 -43 -81 -43 -6 0 -29 -13 -51 -30 -23 -16 -45
-30 -48 -30 -18 0 -173 -97 -170 -106 2 -6 -6 -10 -18 -10 -11 1 -20 -4 -19
-11 2 -7 -6 -10 -17 -8 -12 2 -18 0 -15 -5 3 -4 -1 -10 -7 -13 -8 -2 -9 -8 -4
-13 5 -5 11 -4 13 4 3 6 17 12 33 12 16 0 31 6 33 13 6 13 8 -16 9 -100 0 -83
14 -62 16 24 2 72 12 121 12 55 0 -21 8 -37 28 -52 22 -18 24 -21 7 -18 -11 1
-23 10 -27 18 -6 13 -7 13 -7 0 0 -8 3 -22 8 -29 6 -9 6 -22 0 -32 -6 -12 -4
-19 6 -23 8 -3 17 -1 20 4 3 4 -1 10 -7 13 -7 2 -11 7 -8 10 3 3 12 2 20 -3
12 -7 12 -12 2 -22 -6 -6 -12 -19 -12 -28 0 -13 1 -13 10 0 7 10 10 -23 11
-105 1 -66 1 -128 0 -137 -2 -13 2 -16 16 -11 16 6 17 6 2 -9 -20 -21 -19
-126 2 -138 11 -8 11 -10 -1 -15 -19 -7 -20 -73 -2 -84 11 -7 10 -9 -2 -14
-19 -7 -22 -37 -3 -37 8 0 7 -4 -3 -10 -12 -8 -12 -10 5 -10 15 0 16 -3 7 -9
-15 -9 -23 -121 -9 -121 5 0 4 -7 -3 -15 -10 -12 -10 -15 1 -15 11 0 11 -2 -1
-10 -12 -8 -13 -11 -1 -19 9 -6 10 -11 2 -15 -6 -4 -11 -12 -11 -18 0 -6 7 -5
18 3 16 13 16 12 3 -4 -17 -21 -23 -132 -9 -159 5 -12 5 -18 -2 -18 -6 0 -10
-30 -10 -76 0 -48 -4 -73 -10 -69 -6 4 -8 11 -5 16 10 15 -2 10 -16 -8 -12
-14 -12 -16 0 -8 11 6 13 4 8 -9 -4 -10 -7 -20 -7 -22 0 -3 -6 -2 -12 2 -7 4
-9 3 -5 -1 14 -15 39 -15 33 1 -3 8 -1 14 4 14 18 0 10 -35 -10 -48 -15 -9
-20 -9 -20 0 0 6 -2 9 -5 6 -9 -9 7 -38 17 -32 6 4 3 -5 -6 -19 -14 -21 -15
-25 -2 -30 15 -6 16 -31 1 -44 -4 -4 -5 2 -2 15 3 12 1 22 -3 22 -5 0 -11 -15
-13 -32 l-4 -33 -1 33 c-1 17 -6 32 -12 32 -5 0 -9 -3 -9 -7 1 -5 1 -33 0 -62
-1 -43 -4 -52 -13 -43 -7 7 -17 12 -22 12 -6 0 -4 -5 4 -10 10 -6 11 -10 3
-10 -7 0 -13 -7 -13 -16 0 -8 -4 -12 -10 -9 -6 3 -7 -1 -4 -9 3 -9 2 -16 -4
-16 -5 0 -12 -7 -15 -14 -5 -12 -1 -13 16 -6 12 4 21 13 20 19 -2 6 3 8 10 5
7 -2 24 7 37 21 13 14 32 25 42 25 11 0 55 21 100 48 44 26 106 61 137 77 31
17 70 40 86 51 17 12 53 34 80 48 85 46 156 86 199 114 22 14 64 37 91 52 54
28 119 65 199 113 84 50 289 167 293 167 2 0 21 11 43 25 21 13 74 44 117 68
43 24 107 61 143 82 36 20 79 45 95 55 149 86 279 160 283 160 2 0 16 8 30 19
15 10 47 29 72 43 156 87 221 130 216 145 -3 8 -6 372 -6 809 0 629 -3 794
-12 793 -7 0 -107 -55 -223 -121z m-1918 -1250 c-3 -8 -6 -5 -6 6 -1 11 2 17
5 13 3 -3 4 -12 1 -19z m-2 -48 c3 -6 -1 -7 -9 -4 -18 7 -21 14 -7 14 6 0 13
-4 16 -10z m5 -1306 c0 -2 -7 -4 -15 -4 -8 0 -15 4 -15 10 0 5 7 7 15 4 8 -4
15 -8 15 -10z"/>
<path d="M4620 9400 c-9 -6 -10 -10 -3 -10 6 0 15 5 18 10 8 12 4 12 -15 0z"/>
<path d="M4653 9250 c-1 -11 2 -20 8 -20 5 0 9 9 9 20 0 11 -4 20 -8 20 -4 0
-8 -9 -9 -20z"/>
<path d="M4653 9169 c0 -41 2 -47 9 -29 9 23 7 65 -4 75 -3 4 -6 -17 -5 -46z"/>
<path d="M4703 9205 c0 -8 4 -12 9 -9 4 3 8 9 8 15 0 5 -4 9 -8 9 -5 0 -9 -7
-9 -15z"/>
<path d="M4654 9089 c-3 -6 -2 -15 3 -20 5 -5 9 -1 10 11 2 22 -2 25 -13 9z"/>
<path d="M4650 8965 c0 -8 2 -15 4 -15 2 0 6 7 10 15 3 8 1 15 -4 15 -6 0 -10
-7 -10 -15z"/>
<path d="M4711 8854 c0 -11 3 -14 6 -6 3 7 2 16 -1 19 -3 4 -6 -2 -5 -13z"/>
<path d="M4656 8743 c-6 -14 -5 -15 5 -6 7 7 10 15 7 18 -3 3 -9 -2 -12 -12z"/>
<path d="M4650 8584 c0 -10 5 -26 10 -34 8 -11 9 -7 4 15 -8 37 -14 45 -14 19z"/>
<path d="M4654 8065 c-1 -36 2 -65 6 -65 4 0 7 29 7 65 0 36 -3 65 -6 65 -3 0
-6 -29 -7 -65z"/>
<path d="M8460 7026 c0 -3 9 -10 20 -16 11 -6 20 -8 20 -6 0 3 -9 10 -20 16
-11 6 -20 8 -20 6z"/>
<path d="M8537 6979 c7 -7 15 -10 18 -7 3 3 -2 9 -12 12 -14 6 -15 5 -6 -5z"/>
<path d="M8600 6946 c0 -3 14 -12 30 -21 17 -9 30 -13 30 -11 0 3 -13 12 -30
21 -16 9 -30 13 -30 11z"/>
<path d="M8675 6903 c6 -6 28 -20 50 -32 22 -13 31 -15 20 -6 -22 18 -86 53
-70 38z"/>
<path d="M8795 6833 c6 -6 33 -23 60 -38 28 -16 46 -24 40 -18 -5 6 -32 23
-60 38 -27 16 -45 24 -40 18z"/>
<path d="M8917 6759 c7 -7 15 -10 18 -7 3 3 -2 9 -12 12 -14 6 -15 5 -6 -5z"/>
<path d="M8980 6726 c0 -3 9 -10 20 -16 11 -6 20 -8 20 -6 0 3 -9 10 -20 16
-11 6 -20 8 -20 6z"/>
<path d="M3335 4980 c-19 -8 -55 -44 -55 -55 0 -14 20 -2 25 15 4 11 11 18 16
15 5 -4 9 -1 9 4 0 6 7 11 15 11 8 0 15 5 15 10 0 6 -1 10 -2 9 -2 0 -12 -4
-23 -9z"/>
<path d="M3200 4904 c-19 -19 -41 -34 -50 -34 -8 0 -26 -9 -40 -20 -14 -11
-31 -20 -38 -20 -23 0 -72 -33 -78 -53 -5 -15 -15 -18 -58 -16 -29 1 -58 -1
-64 -5 -7 -4 -16 -5 -21 -2 -5 3 -39 -12 -76 -35 -36 -22 -128 -71 -203 -109
-242 -121 -1167 -560 -1182 -560 -4 0 -13 -7 -20 -15 -7 -8 -16 -12 -21 -9 -5
3 -9 2 -9 -3 0 -4 10 -13 23 -19 12 -6 56 -31 97 -56 149 -90 326 -193 375
-218 28 -14 77 -42 109 -64 33 -21 67 -41 75 -44 9 -3 35 -18 58 -34 23 -15
44 -28 48 -28 5 0 68 -36 235 -135 30 -18 86 -49 124 -69 38 -20 80 -45 95
-55 14 -10 51 -31 81 -47 30 -15 73 -39 95 -54 22 -14 56 -33 75 -43 19 -10
53 -29 75 -42 22 -14 47 -25 56 -25 10 0 46 17 80 38 35 21 76 44 92 51 15 8
27 18 27 23 0 4 7 8 17 8 9 0 13 3 10 6 -4 4 28 24 69 45 89 44 108 59 76 59
-12 0 -22 -4 -22 -10 0 -5 -5 -10 -11 -10 -5 0 -7 5 -4 10 3 6 1 10 -4 10 -6
0 -11 -7 -11 -15 0 -8 -4 -15 -8 -15 -4 0 -6 16 -4 35 3 22 0 35 -7 35 -7 0
-9 -4 -6 -10 3 -5 2 -10 -4 -10 -5 0 -12 10 -14 23 -2 12 -5 1 -6 -24 -1 -32
-6 -49 -16 -53 -8 -3 -15 -1 -15 3 0 5 6 11 13 14 9 3 7 9 -5 24 -21 23 -23
37 -5 28 6 -4 4 0 -5 7 -12 10 -15 24 -12 47 3 20 2 31 -4 27 -17 -11 -13 -94
6 -106 16 -11 15 -11 -1 -6 -10 3 -21 6 -23 6 -2 0 -4 43 -4 95 0 52 4 95 9
95 4 0 7 -16 5 -35 -1 -19 2 -35 7 -35 5 0 8 3 8 8 -3 18 2 24 14 14 10 -8 13
-6 14 7 1 12 -5 18 -15 17 -10 -1 -17 7 -17 19 0 11 -6 19 -12 18 -10 -2 -13
25 -13 112 0 85 -3 115 -12 115 -10 0 -10 2 -1 8 9 6 12 43 12 125 -1 97 -4
119 -18 128 -15 10 -15 10 1 5 14 -4 17 4 17 65 0 51 -3 68 -12 63 -9 -5 -8
-3 1 7 6 7 12 24 12 37 0 20 -3 22 -14 12 -8 -6 -12 -19 -9 -27 4 -11 2 -14
-5 -9 -17 10 -15 24 8 43 11 10 20 25 20 35 0 10 -9 27 -20 38 l-20 20 23 0
c16 0 18 3 8 9 -11 7 -11 9 0 13 11 4 12 11 2 36 -6 18 -7 32 -2 32 5 0 9 5 9
11 0 6 -7 9 -15 6 -8 -4 -17 -2 -20 4 -4 5 -3 9 2 8 29 -5 31 5 32 133 1 73 4
134 6 136 3 3 11 -1 19 -7 12 -10 14 -9 12 3 -1 9 -5 19 -9 22 -10 11 -8 26 2
19 5 -3 12 -1 16 5 3 5 -3 10 -14 10 -10 0 -22 -6 -24 -12 -3 -7 -6 1 -6 17 0
21 2 26 8 16 7 -11 10 -9 16 8 3 11 4 25 0 30 -3 5 0 13 6 17 8 4 9 3 5 -4 -4
-7 -2 -12 4 -12 8 0 10 9 6 24 -6 26 0 27 49 11 18 -6 18 -5 3 5 -10 6 -15 17
-11 27 6 15 7 14 14 -3 6 -13 8 -7 6 21 -3 51 -21 54 -67 9z m-25 -104 c3 -5
1 -10 -4 -10 -6 0 -11 5 -11 10 0 6 2 10 4 10 3 0 8 -4 11 -10z m-325 -59 c0
-5 -7 -12 -16 -15 -14 -5 -15 -4 -4 9 14 17 20 19 20 6z m-315 -171 c-3 -5
-12 -10 -18 -10 -7 0 -6 4 3 10 19 12 23 12 15 0z m-40 -20 c-3 -5 -12 -10
-18 -10 -7 0 -6 4 3 10 19 12 23 12 15 0z m-40 -20 c-3 -5 -12 -10 -18 -10 -7
0 -6 4 3 10 19 12 23 12 15 0z m672 -62 c-3 -8 -6 -5 -6 6 -1 11 2 17 5 13 3
-3 4 -12 1 -19z m15 -360 c-7 -7 -10 -5 -7 8 5 29 6 30 12 16 3 -8 1 -18 -5
-24z m-1737 -88 c-3 -5 -12 -10 -18 -10 -7 0 -6 4 3 10 19 12 23 12 15 0z
m1785 -716 c0 -2 -7 -4 -15 -4 -8 0 -15 4 -15 10 0 5 7 7 15 4 8 -4 15 -8 15
-10z"/>
<path d="M3232 4810 c-1 -28 1 -32 9 -17 6 9 14 15 20 12 5 -4 9 -1 9 4 0 6
-6 11 -14 11 -8 0 -16 6 -19 13 -2 6 -4 -4 -5 -23z"/>
<path d="M3204 4792 c3 -5 0 -12 -6 -15 -7 -2 -10 -7 -7 -11 3 -4 12 0 18 8 9
11 9 16 0 22 -7 4 -9 3 -5 -4z"/>
<path d="M3231 4714 c0 -11 3 -14 6 -6 3 7 2 16 -1 19 -3 4 -6 -2 -5 -13z"/>
<path d="M3231 4644 c0 -11 3 -14 6 -6 3 7 2 16 -1 19 -3 4 -6 -2 -5 -13z"/>
<path d="M3170 4570 c0 -5 5 -10 11 -10 5 0 7 5 4 10 -3 6 -8 10 -11 10 -2 0
-4 -4 -4 -10z"/>
<path d="M3173 3583 c0 -7 4 -13 8 -13 4 0 9 6 12 13 3 8 0 14 -7 14 -7 0 -13
-6 -13 -14z"/>
<path d="M3232 3560 c0 -19 2 -27 5 -17 2 9 2 25 0 35 -3 9 -5 1 -5 -18z"/>
<path d="M3197 3554 c-6 -10 9 -42 16 -34 3 3 1 14 -3 24 -3 11 -9 15 -13 10z"/>
<path d="M3230 3467 c0 -20 4 -37 8 -37 9 0 7 58 -2 67 -3 4 -6 -10 -6 -30z"/>
<path d="M3262 3440 c0 -14 2 -19 5 -12 2 6 2 18 0 25 -3 6 -5 1 -5 -13z"/>
<path d="M3205 3420 c3 -5 8 -10 11 -10 2 0 4 5 4 10 0 6 -5 10 -11 10 -5 0
-7 -4 -4 -10z"/>
<path d="M3261 3384 c0 -11 3 -14 6 -6 3 7 2 16 -1 19 -3 4 -6 -2 -5 -13z"/>
<path d="M3430 3375 c-7 -8 -16 -12 -21 -9 -5 3 -17 1 -26 -5 -15 -8 -12 -10
15 -9 17 1 32 5 32 10 0 5 4 7 8 4 5 -3 9 1 9 9 0 19 -2 19 -17 0z"/>
</g>
</svg>
